<svg data-name="Group 59" xmlns="http://www.w3.org/2000/svg" width="20.057" height="19.151" viewBox="0 0 20.057 19.151"><g data-name="Group 58"><g data-name="Group 4" fill="#030404"><path data-name="Path 341" d="M1.212 15.394v1.464h1.119V16.6h-.818v-.383h.73v-.256h-.73v-.323h.788v-.25z"/><path data-name="Path 342" d="M3.995 16.801l-.165-.147a.849.849 0 00.147-.524.687.687 0 00-.583-.776.678.678 0 00-.127-.006.7.7 0 00-.714.675.939.939 0 00.006.107.687.687 0 00.6.768.969.969 0 00.107.006.772.772 0 00.385-.1l.165.177zm-.708-.339l.157.143a.356.356 0 01-.179.044c-.159 0-.4-.111-.4-.516s.24-.518.4-.518.4.1.4.518a.531.531 0 01-.073.31l-.159-.137z"/><path data-name="Path 343" d="M5.445 16.349c0 .393-.234.558-.611.558a.606.606 0 01-.468-.179.517.517 0 01-.111-.355v-.97h.312v.954c0 .2.111.3.262.3.216 0 .3-.111.3-.286v-.966h.317z"/><path data-name="Path 344" d="M5.993 16.559h.542l.093.3h.339l-.522-1.466h-.343l-.532 1.466h.317zm.266-.839h.018l.177.585h-.367z"/><path data-name="Path 345" d="M7.209 15.394v1.464h1.04v-.257h-.732v-1.207z"/><path data-name="Path 346" d="M10.007 15.394v.56h-.583v-.56h-.306v1.464h.306v-.657h.583v.655h.3v-1.464z"/><path data-name="Path 347" d="M10.586 16.132a.688.688 0 00.6.768.649.649 0 00.107 0 .68.68 0 00.714-.649.856.856 0 000-.123.691.691 0 00-.589-.778.615.615 0 00-.121-.006.7.7 0 00-.714.679.932.932 0 00.006.105m.312 0c0-.421.236-.518.4-.518s.411.1.411.518-.24.516-.411.516-.4-.113-.4-.516"/><path data-name="Path 348" d="M13.488 16.349c0 .393-.23.558-.6.558a.613.613 0 01-.468-.179.537.537 0 01-.121-.355v-.97h.308v.954a.264.264 0 00.23.294.212.212 0 00.036 0c.22 0 .306-.111.306-.286v-.96h.311z"/><path data-name="Path 349" d="M14.047 16.404c0 .079.046.248.325.248.137 0 .294-.038.294-.195 0-.119-.109-.153-.254-.19l-.155-.032c-.248-.054-.48-.1-.48-.431 0-.165.085-.454.572-.454a.5.5 0 01.569.427v.054h-.3c-.012-.07-.034-.222-.3-.222-.107 0-.258.042-.258.165s.1.149.159.161l.355.091c.2.046.391.133.391.393 0 .441-.458.486-.576.486-.548 0-.641-.307-.641-.5z"/><path data-name="Rectangle 2" d="M15.222 15.395h.312v1.465h-.312z"/><path data-name="Path 350" d="M16.768 15.394v1.028h-.013l-.575-1.028h-.325v1.464h.282v-1.052l.613 1.052h.312v-1.464z"/><path data-name="Path 351" d="M18.095 16.071h.623v.79h-.214l-.028-.177a.534.534 0 01-.46.226.68.68 0 01-.683-.679.791.791 0 01.006-.1.712.712 0 01.633-.78h.077a.583.583 0 01.657.5h-.318a.31.31 0 00-.323-.242c-.216 0-.425.147-.425.52 0 .4.224.516.425.516a.372.372 0 00.367-.325h-.355z"/><path data-name="Path 352" d="M1.147 18.367a.7.7 0 00.6.778 1.1 1.1 0 00.113.006.692.692 0 00.714-.667.582.582 0 00-.006-.117.7.7 0 00-.607-.776.584.584 0 00-.1 0 .7.7 0 00-.714.683v.1m.314 0c0-.411.236-.514.4-.514s.4.1.4.514-.238.532-.4.532-.4-.105-.4-.532"/><path data-name="Path 353" d="M3.411 18.582h.353a.448.448 0 00.47-.431.154.154 0 000-.044.438.438 0 00-.4-.476.464.464 0 00-.055 0h-.673v1.479H3.4zm0-.258v-.435h.254c.193 0 .264.057.264.2 0 .076 0 .236-.224.236z"/><path data-name="Path 354" d="M5.078 18.581h.355a.457.457 0 00.476-.437.122.122 0 000-.038.43.43 0 00-.381-.476.331.331 0 00-.077 0h-.673v1.479h.305zm0-.258v-.435h.246c.186 0 .278.057.278.2 0 .076 0 .236-.236.236z"/><path data-name="Path 355" d="M6.366 18.367a.693.693 0 00.6.778 1.081 1.081 0 00.113.006.7.7 0 00.714-.675.979.979 0 00-.006-.109.709.709 0 00-.635-.778h-.073a.7.7 0 00-.714.683.541.541 0 000 .1m.307 0c0-.411.236-.514.4-.514s.395.1.395.514-.23.532-.395.532-.4-.105-.4-.532"/><path data-name="Path 356" d="M8.316 19.107h.31v-.581h.315c.216 0 .238.067.238.28a.776.776 0 00.044.3h.333v-.04c-.067-.022-.067-.079-.067-.3 0-.278-.067-.323-.179-.373a.354.354 0 00.222-.355.421.421 0 00-.419-.423h-.797zm.31-.823v-.4h.379c.19 0 .222.121.222.194 0 .145-.087.2-.246.2z"/><path data-name="Path 357" d="M9.933 17.633v.26h.437v1.22h.32v-1.22h.444v-.26z"/><path data-name="Path 358" d="M12.793 18.593c0 .393-.236.558-.615.558a.666.666 0 01-.462-.179.592.592 0 01-.115-.353v-.984h.321v.96c0 .206.111.3.258.3.214 0 .3-.105.3-.292v-.968h.32z"/><path data-name="Path 359" d="M14.287 17.633v1.03l-.581-1.03h-.329v1.48h.284v-1.054l.613 1.054h.315v-1.48z"/><path data-name="Rectangle 3" d="M15.136 17.63h.307v1.481h-.307z"/><path data-name="Path 360" d="M15.904 17.633v.26h.446v1.22h.3v-1.22h.45v-.26z"/><path data-name="Path 361" d="M18.272 19.112h-.315v-.554l-.506-.927h.353l.312.647.286-.647h.353l-.486.927z"/><path data-name="Path 362" d="M16.569 12.025h-13.3V5.713l6.687-3.415 6.612 3.415zM9.955 0L0 4.9v2.306h1.115v6.9h17.6v-6.9h1.339V4.9z"/><path data-name="Rectangle 4" d="M6.827 5.712h6.165v2.231H6.827z"/><path data-name="Rectangle 5" d="M6.827 8.912h6.165v2.225H6.827z"/></g></g></svg>