<svg data-name="Group 90" xmlns="http://www.w3.org/2000/svg" width="66.093" height="19.281" viewBox="0 0 66.093 19.281"><g data-name="Group 89"><g data-name="Group 88" fill="#030404"><path data-name="Path 664" d="M0 .133v6.473h1.2V3.951h2.738V2.778H1.2V1.306h3.314V.133z"/><path data-name="Path 665" d="M14.015.133h-1.2v6.473h1.2z"/><path data-name="Path 666" d="M27.455 5.433v1.173h-4.673V.133h4.673v1.173h-3.469v1.472h2.884v1.173h-2.881v1.482z"/><path data-name="Path 667" d="M40.646 6.606h-4.373V.133h1.2v5.3h3.169z"/><path data-name="Path 668" d="M51.213.133a3.232 3.232 0 110 6.463h-2.212V.133zm0 1.173h-1.008v4.127h1.008a2.064 2.064 0 000-4.127z"/><path data-name="Path 669" d="M64.756 1.945a.972.972 0 00-1.072-.885c-.627 0-.976.3-.986.772-.012.411.165.73 1.337.885 1.254.165 2.058.885 2.058 2.026 0 1.276-1.03 2.018-2.409 2.018a2.1 2.1 0 01-2.346-2.1h1.195a1.075 1.075 0 001.163 1.038 1.019 1.019 0 001.151-.956c0-.359-.1-.792-1.315-.927-1.369-.153-2.07-.843-2.07-1.984C61.462.657 62.44 0 63.696 0a1.992 1.992 0 012.252 1.945z"/><path data-name="Path 670" d="M13.048 19.149v-.988h-.032a2.455 2.455 0 01-2.181 1.121 3.1 3.1 0 01-3.046-3.189 3.185 3.185 0 013.292-3.191 2.987 2.987 0 012.933 2.038H12.78a2 2 0 00-1.7-.988 2.118 2.118 0 00-2.109 2.131 2.078 2.078 0 002.018 2.129 1.977 1.977 0 001.923-1.584h-1.831v-1.111h2.933v3.611h-.966z"/><path data-name="Path 671" d="M26.312 17.02l1.05 2.129h-1.266l-.956-1.935h-1.235v1.935h-1.133v-6.1h2.645a2.069 2.069 0 012.109 2.089 1.992 1.992 0 01-1.214 1.882zm-.895-2.861h-1.5v1.954h1.5a.979.979 0 000-1.954z"/><path data-name="Path 672" d="M39.525 13.047l2.109 6.1h-1.223l-.379-1.111h-2.254l-.381 1.111h-1.224l2.109-6.1zm.113 3.889l-.7-2.49h-.062l-.7 2.49z"/><path data-name="Path 673" d="M51.081 13.047a3.056 3.056 0 110 6.112h-2.09v-6.112zm0 1.111h-.956v3.889h.956a1.945 1.945 0 000-3.889z"/><path data-name="Path 674" d="M65.754 18.048v1.111h-4.415v-6.1h4.415v1.111h-3.272v1.379h2.714v1.111h-2.717v1.4h3.272z"/></g></g></svg>