<svg data-name="Group 98" xmlns="http://www.w3.org/2000/svg" width="79.686" height="21.901" viewBox="0 0 79.686 21.901"><g data-name="Group 93"><g data-name="Group 92" fill="#030504"><path data-name="Path 675" d="M25.083 12.452l.3-.351a2.011 2.011 0 001.451.6c.567 0 .941-.3.941-.718v-.012c0-.393-.21-.617-1.1-.8-.972-.21-1.419-.526-1.419-1.22v-.012a1.247 1.247 0 011.385-1.164 2.2 2.2 0 011.486.52l-.278.367a1.862 1.862 0 00-1.22-.458c-.55 0-.9.3-.9.683v.012c0 .4.216.621 1.147.822s1.377.55 1.377 1.2v.012c0 .724-.6 1.195-1.445 1.195a2.476 2.476 0 01-1.725-.676z"/><path data-name="Path 676" d="M29.403 10.969v-.012a2.156 2.156 0 114.312-.014v.014a2.156 2.156 0 11-4.312.012zm3.816 0v-.012a1.681 1.681 0 00-1.667-1.746 1.66 1.66 0 00-1.655 1.732v.014a1.68 1.68 0 001.667 1.744 1.66 1.66 0 001.655-1.732z"/><path data-name="Path 677" d="M35.02 11.297V8.838h.476v2.429a1.246 1.246 0 001.294 1.425c.778 0 1.274-.47 1.274-1.4V8.833h.476v2.423a1.762 1.762 0 11-3.52.036z"/><path data-name="Path 678" d="M41.152 9.279h-1.421v-.441h3.322v.441h-1.419v3.788h-.482z"/><path data-name="Path 679" d="M44.311 8.838h.476v1.879h2.441V8.838h.478v4.229h-.478v-1.9h-2.441v1.9h-.476z"/><path data-name="Path 680" d="M51.196 10.969v-.012a2.211 2.211 0 014.421-.014v.014a2.211 2.211 0 01-4.421.012zm3.643 0v-.012a1.45 1.45 0 00-1.439-1.5 1.428 1.428 0 00-1.425 1.49v.014a1.443 1.443 0 001.437 1.5 1.424 1.424 0 001.427-1.492z"/><path data-name="Path 681" d="M60.155 8.838l-1.471 2.066 1.534 2.163h-.875l-1.117-1.613-1.111 1.613h-.853l1.53-2.151-1.468-2.078h.875l1.052 1.534 1.058-1.534z"/><path data-name="Path 682" d="M61.346 8.838h3.147v.677h-2.4v1.155h2.133v.675h-2.138v1.722h-.742z"/><path data-name="Path 683" d="M65.443 10.969v-.012a2.211 2.211 0 014.421-.014v.014a2.211 2.211 0 01-4.421.012zm3.641 0v-.012a1.448 1.448 0 00-1.437-1.5 1.429 1.429 0 00-1.427 1.49v.014a1.445 1.445 0 001.439 1.5 1.423 1.423 0 001.43-1.492z"/><path data-name="Path 684" d="M71.131 8.838h1.885a1.7 1.7 0 011.22.423 1.277 1.277 0 01.351.913v.012a1.268 1.268 0 01-1 1.28l1.143 1.6h-.883l-1.038-1.474h-.931v1.474h-.744zm1.832 2.1c.532 0 .869-.278.869-.707v-.012c0-.453-.326-.7-.875-.7h-1.081v1.419z"/><path data-name="Path 685" d="M75.861 8.838h1.578a2.108 2.108 0 012.246 2.1v.014a2.117 2.117 0 01-2.246 2.113h-1.578zm.742.677v2.875h.835a1.377 1.377 0 001.466-1.425v-.012a1.388 1.388 0 00-1.466-1.439z"/><g data-name="Group 91"><path data-name="Path 686" d="M35.638 16.426h.274l.875 1.31.873-1.31h.274v2.4h-.27v-1.943l-.875 1.286h-.014l-.873-1.282v1.939h-.264z"/><path data-name="Path 687" d="M40.392 16.411h.254l1.093 2.415h-.292l-.28-.633h-1.308l-.284.633h-.278zm.669 1.536l-.546-1.222-.548 1.222z"/><path data-name="Path 688" d="M43.105 16.426h.254l1.512 1.923v-1.923h.264v2.4h-.216l-1.55-1.967v1.967h-.264z"/><path data-name="Path 689" d="M47.591 16.411h.254l1.093 2.415h-.295l-.28-.633h-1.306l-.286.633h-.278zm.669 1.536l-.544-1.222-.55 1.222z"/><path data-name="Path 690" d="M50.058 17.633v-.006a1.2 1.2 0 011.2-1.24 1.263 1.263 0 01.895.317l-.175.206a1.022 1.022 0 00-.73-.274.937.937 0 00-.913.982v.008a.929.929 0 00.95 1 1.136 1.136 0 00.693-.24v-.6h-.73v-.244h.99v.956a1.442 1.442 0 01-.962.367 1.176 1.176 0 01-1.218-1.232z"/><path data-name="Path 691" d="M53.743 16.426h1.734v.248h-1.462v.818h1.31v.248h-1.31v.839h1.48v.246h-1.752z"/><path data-name="Path 692" d="M56.932 16.426h.274l.875 1.31.873-1.31h.274v2.4h-.27v-1.943l-.875 1.286h-.012l-.875-1.282v1.939h-.264z"/><path data-name="Path 693" d="M60.799 16.426h1.738v.248h-1.464v.818h1.31v.248h-1.31v.839h1.482v.246h-1.752z"/><path data-name="Path 694" d="M63.988 16.426h.252l1.512 1.923v-1.923h.264v2.4h-.214l-1.55-1.967v1.967h-.264z"/><path data-name="Path 695" d="M68.219 16.676h-.8v-.25h1.887v.25H68.5v2.149h-.281z"/></g></g></g><g data-name="Group 97"><g data-name="Group 96"><g data-name="Group 94"><path data-name="Path 696" d="M15.445 0l-2.46 2.107 4.039 5.782.131.188v11.949l4.092 1.876v-13.6z" fill="#030504" fill-rule="evenodd"/></g><g data-name="Group 95"><path data-name="Path 697" d="M10.661 0l-2.46 2.107 4.039 5.782.131.188v11.949l4.092 1.876v-13.6z" fill="#030504" fill-rule="evenodd"/></g><path data-name="Path 698" d="M5.802 0l-5.8 4.968v11.614l3.7 1.7V11.12l3.3 1.6v7.076l4.6 2.11v-13.6z" fill="#030504" fill-rule="evenodd"/></g></g></svg>