<svg data-name="Group 101" xmlns="http://www.w3.org/2000/svg" width="33.888" height="24.79" viewBox="0 0 33.888 24.79"><g data-name="Group 99" fill="#1a1818"><path data-name="Path 699" d="M.052 22.042h1.214a1.2 1.2 0 01.494.089.634.634 0 01.369.631.653.653 0 01-.377.637.555.555 0 01.236.169.6.6 0 01.087.335l.014.357a1.322 1.322 0 00.024.228.225.225 0 00.117.163v.06h-.443a.365.365 0 01-.03-.089 1.414 1.414 0 01-.018-.21l-.022-.444a.378.378 0 00-.188-.351.787.787 0 00-.318-.048h-.8v1.143H.052zm1.175 1.224a.666.666 0 00.391-.1.417.417 0 00.145-.367.4.4 0 00-.2-.389.666.666 0 00-.29-.053H.414v.913z"/><path data-name="Path 700" d="M3.715 22.042h1.937v.327H4.071v.81h1.464v.31H4.071v.9h1.611v.318H3.718z"/><path data-name="Path 701" d="M7.251 23.849a.739.739 0 00.1.369.675.675 0 00.611.266 1.029 1.029 0 00.357-.06.408.408 0 00.31-.4.352.352 0 00-.131-.31 1.3 1.3 0 00-.419-.159l-.349-.081a1.523 1.523 0 01-.486-.177.564.564 0 01-.248-.5.775.775 0 01.244-.589.947.947 0 01.685-.232 1.173 1.173 0 01.695.2.736.736 0 01.286.647h-.339a.712.712 0 00-.111-.329.639.639 0 00-.54-.208.606.606 0 00-.44.135.425.425 0 00-.133.311.309.309 0 00.157.288 2.323 2.323 0 00.47.145l.363.085a1.1 1.1 0 01.4.169.64.64 0 01.246.544.684.684 0 01-.314.635 1.387 1.387 0 01-.73.19 1.076 1.076 0 01-.762-.256.868.868 0 01-.268-.685z"/><path data-name="Path 702" d="M10.57 22.042h.365v2.669h-.365z"/><path data-name="Path 703" d="M12.625 22.042h1.066a1 1 0 01.843.391 1.464 1.464 0 01.266.9 1.811 1.811 0 01-.157.768.974.974 0 01-.956.607h-1.064zm1 2.361a.948.948 0 00.3-.04.64.64 0 00.337-.272 1.157 1.157 0 00.151-.415 1.586 1.586 0 00.026-.28 1.322 1.322 0 00-.193-.77.707.707 0 00-.621-.274h-.634v2.05z"/><path data-name="Path 704" d="M16.323 22.042h1.937v.327h-1.586v.81h1.464v.31h-1.464v.9h1.611v.318h-1.962z"/><path data-name="Path 705" d="M19.681 22.042h.427l1.332 2.157v-2.157h.345v2.669h-.407l-1.351-2.153v2.153h-.345z"/><path data-name="Path 706" d="M25.296 22.042v.32h-.9v2.349h-.365v-2.349h-.9v-.32z"/><path data-name="Path 707" d="M26.701 22.042h.365v2.669h-.365z"/><path data-name="Path 708" d="M29.455 22.042h.409l.969 2.669h-.4l-.27-.8h-1.056l-.29.8h-.369zm.593 1.576l-.4-1.179-.431 1.179z"/><path data-name="Path 709" d="M32.188 22.042h.361v2.351h1.339v.318h-1.7z"/></g><g data-name="Group 100" fill="#030404"><path data-name="Path 710" d="M1.349 18.865l-.528 1.457h-.822l2.518-6.876h1.089l2.568 6.876h-.812l-.534-1.457zm1.728-4.786l-1.506 4.2h3.032z"/><path data-name="Path 711" d="M8.022 19.602h3.536v.72H7.246v-6.876h.776z"/><path data-name="Path 712" d="M12.662 13.446h3.147a2.168 2.168 0 011.586.447 2.488 2.488 0 01.423 1.679 2.229 2.229 0 01-.441 1.605 2.4 2.4 0 01-1.655.429l-.3.006h-1.984v2.706h-.776zm2.615 3.51a2.937 2.937 0 001.478-.236c.216-.159.323-.522.323-1.089a2.3 2.3 0 00-.218-1.262c-.147-.177-.492-.264-1.04-.264h-2.385v2.855z"/><path data-name="Path 713" d="M20.008 20.318h-.776v-6.876h.776z"/><path data-name="Path 714" d="M27.513 20.318h-1.274l-2.881-4.681-.468-.77-.232-.383-.23-.383h-.022l.006.256.006.262v5.7h-.776v-6.876h1.268l2.514 4.1.655 1.077.327.534.321.54h.022l-.006-.258v-5.993h.774z"/><path data-name="Path 715" d="M29.753 16.442h3.49v.655h-3.49v2.57h3.641v.655h-4.417v-6.876h4.417v.653h-3.641z"/><path data-name="Path 716" d="M14.305 6.376l.652 1.937 2.2-2.172 2.2 2.172.652-1.937-2.851-2.86z"/><path data-name="Path 717" d="M17.156 0l-3.919 3.85.688 2.009 3.232-3.231 3.231 3.231.688-2.009z"/></g></svg>