<svg xmlns="http://www.w3.org/2000/svg" width="206.495" height="40.256" viewBox="0 0 206.495 40.256"><g data-name="Logo - White" fill="#fff"><path d="M44.55 16.487H30.403V1.04h-7.646v39.216h7.646V22.728H44.55v17.527h7.646V1.04H44.55z"/><path data-name="fullLogo" d="M77.647 0L62.356 40.256h8.061l3.225-8.27h13.626l3.017 8.27h8.166L83.577 0zm-1.821 25.745l4.317-14.251h.1l4.889 14.251zM110.232 1.04v6.657h14.615L107.58 40.255h28.449v-6.657H119.75L136.965 1.04zm39.715 39.216h20.284v-6.658h-12.638V22.989h12.17v-6.658h-12.17V7.697h12.638V1.04h-20.284zm45.735-6.658V1.04h-7.646v39.216H206.5v-6.658zM0 2.71h2.781v8.311h1.952V2.71h2.781v-1.7H0zm5.563 16.86H1.952v-3.943H0v10.01h1.952v-4.473h3.611v4.474h1.952V15.627H5.563zM.067 40.255h7.382v-1.7h-5.43v-2.708H7.33v-1.7H2.018v-2.2h5.43v-1.7H.067z"/></g></svg>