<svg xmlns="http://www.w3.org/2000/svg" width="261.609" height="51" viewBox="0 0 261.609 51"><g data-name="Logo - White"><path d="M56.44 20.887H38.518V1.317h-9.687v49.679h9.686v-22.2h17.922v22.2h9.686V1.317h-9.686z"/><path data-name="fullLogo" d="M98.372 0L78.999 51h10.213l4.086-10.477h17.263L114.383 51h10.345L105.884 0zm-2.307 32.616l5.47-18.054h.131l6.194 18.054zm43.588-31.299v8.434h18.516l-21.877 41.245h36.043v-8.434h-20.624l21.813-41.245zm50.314 49.679h25.7v-8.434h-16.009V29.124h15.419V20.69h-15.419V9.751h16.011V1.317h-25.7zm57.937-8.431V1.317h-9.686v49.679h23.391v-8.434zM0 3.432h3.524v10.53h2.473V3.432h3.524V1.279H.001zm7.048 21.362H2.473v-5H0V32.48h2.473v-5.668h4.575v5.668h2.473V19.798H7.048zM.085 50.999h9.352v-2.152h-6.88v-3.431h6.728v-2.153H2.557V40.47h6.879v-2.153H.085z"/></g></svg>